<svg width="28" height="19" viewBox="0 0 28 19" fill="none" xmlns="http://www.w3.org/2000/svg">
<path d="M0.551136 18V15.7159L6.6108 9.77557C7.19034 9.19034 7.6733 8.67045 8.05966 8.21591C8.44602 7.76136 8.7358 7.32102 8.92898 6.89489C9.12216 6.46875 9.21875 6.0142 9.21875 5.53125C9.21875 4.98011 9.09375 4.50852 8.84375 4.11648C8.59375 3.71875 8.25 3.41193 7.8125 3.19602C7.375 2.98011 6.87784 2.87216 6.32102 2.87216C5.74716 2.87216 5.24432 2.99148 4.8125 3.23011C4.38068 3.46307 4.04545 3.79545 3.80682 4.22727C3.57386 4.65909 3.45739 5.1733 3.45739 5.76989H0.448864C0.448864 4.66193 0.701705 3.69886 1.20739 2.88068C1.71307 2.0625 2.40909 1.42898 3.29545 0.980114C4.1875 0.53125 5.21023 0.306818 6.36364 0.306818C7.53409 0.306818 8.5625 0.525568 9.44886 0.963068C10.3352 1.40057 11.0227 2 11.5114 2.76136C12.0057 3.52273 12.2528 4.39204 12.2528 5.36932C12.2528 6.02273 12.1278 6.66477 11.8778 7.29545C11.6278 7.92614 11.1875 8.625 10.5568 9.39205C9.93182 10.1591 9.05398 11.0881 7.9233 12.179L4.91477 15.2386V15.358H12.517V18H0.551136ZM21.5256 18.2386C20.3892 18.2386 19.3722 18.0256 18.4744 17.5994C17.5767 17.1676 16.8636 16.5767 16.3352 15.8267C15.8125 15.0767 15.5341 14.2187 15.5 13.2528H18.5682C18.625 13.9687 18.9347 14.554 19.4972 15.0085C20.0597 15.4574 20.7358 15.6818 21.5256 15.6818C22.1449 15.6818 22.696 15.5398 23.179 15.2557C23.6619 14.9716 24.0426 14.5767 24.321 14.071C24.5994 13.5653 24.7358 12.9886 24.7301 12.3409C24.7358 11.6818 24.5966 11.0966 24.3125 10.5852C24.0284 10.0739 23.6392 9.6733 23.1449 9.38352C22.6506 9.08807 22.0824 8.94034 21.4403 8.94034C20.9176 8.93466 20.4034 9.03125 19.8977 9.23011C19.392 9.42898 18.9915 9.69034 18.696 10.0142L15.8409 9.54545L16.7528 0.545454H26.8778V3.1875H19.3693L18.8665 7.81534H18.9688C19.2926 7.43466 19.75 7.11932 20.3409 6.86932C20.9318 6.61364 21.5795 6.4858 22.2841 6.4858C23.3409 6.4858 24.2841 6.7358 25.1136 7.2358C25.9432 7.73011 26.5966 8.41193 27.0739 9.28125C27.5511 10.1506 27.7898 11.1449 27.7898 12.2642C27.7898 13.4176 27.5227 14.446 26.9886 15.3494C26.4602 16.2472 25.7244 16.9545 24.7812 17.4716C23.8438 17.983 22.7585 18.2386 21.5256 18.2386Z" fill="#5A7C73"/>
</svg>
