<svg width="29" height="19" viewBox="0 0 29 19" fill="none" xmlns="http://www.w3.org/2000/svg">
<path d="M6.61932 18.2386C5.48295 18.2386 4.46591 18.0256 3.56818 17.5994C2.67045 17.1676 1.95739 16.5767 1.42898 15.8267C0.90625 15.0767 0.627841 14.2187 0.59375 13.2528H3.66193C3.71875 13.9687 4.02841 14.554 4.59091 15.0085C5.15341 15.4574 5.82955 15.6818 6.61932 15.6818C7.23864 15.6818 7.78977 15.5398 8.27273 15.2557C8.75568 14.9716 9.13636 14.5767 9.41477 14.071C9.69318 13.5653 9.82955 12.9886 9.82386 12.3409C9.82955 11.6818 9.69034 11.0966 9.40625 10.5852C9.12216 10.0739 8.73295 9.6733 8.23864 9.38352C7.74432 9.08807 7.17614 8.94034 6.53409 8.94034C6.01136 8.93466 5.49716 9.03125 4.99148 9.23011C4.4858 9.42898 4.08523 9.69034 3.78977 10.0142L0.934659 9.54545L1.84659 0.545454H11.9716V3.1875H4.46307L3.96023 7.81534H4.0625C4.38636 7.43466 4.84375 7.11932 5.43466 6.86932C6.02557 6.61364 6.6733 6.4858 7.37784 6.4858C8.43466 6.4858 9.37784 6.7358 10.2074 7.2358C11.0369 7.73011 11.6903 8.41193 12.1676 9.28125C12.6449 10.1506 12.8835 11.1449 12.8835 12.2642C12.8835 13.4176 12.6165 14.446 12.0824 15.3494C11.554 16.2472 10.8182 16.9545 9.875 17.4716C8.9375 17.983 7.85227 18.2386 6.61932 18.2386ZM22.1903 18.3324C20.7869 18.3324 19.5824 17.9773 18.5767 17.267C17.5767 16.5511 16.8068 15.5199 16.267 14.1733C15.733 12.821 15.4659 11.1932 15.4659 9.28977C15.4716 7.38636 15.7415 5.76705 16.2756 4.43182C16.8153 3.09091 17.5852 2.06818 18.5852 1.36364C19.5909 0.659091 20.7926 0.306818 22.1903 0.306818C23.5881 0.306818 24.7898 0.659091 25.7955 1.36364C26.8011 2.06818 27.571 3.09091 28.1051 4.43182C28.6449 5.77273 28.9148 7.39205 28.9148 9.28977C28.9148 11.1989 28.6449 12.8295 28.1051 14.1818C27.571 15.5284 26.8011 16.5568 25.7955 17.267C24.7955 17.9773 23.5938 18.3324 22.1903 18.3324ZM22.1903 15.6648C23.2813 15.6648 24.142 15.1278 24.7727 14.054C25.4091 12.9744 25.7273 11.3864 25.7273 9.28977C25.7273 7.90341 25.5824 6.73864 25.2926 5.79545C25.0028 4.85227 24.5938 4.14205 24.0653 3.66477C23.5369 3.18182 22.9119 2.94034 22.1903 2.94034C21.1051 2.94034 20.2472 3.48011 19.6165 4.55966C18.9858 5.63352 18.6676 7.21023 18.6619 9.28977C18.6563 10.6818 18.7955 11.8523 19.0795 12.8011C19.3693 13.75 19.7784 14.4659 20.3068 14.9489C20.8352 15.4261 21.4631 15.6648 22.1903 15.6648Z" fill="#365153"/>
</svg>
