<svg width="41" height="38" viewBox="0 0 41 38" fill="none" xmlns="http://www.w3.org/2000/svg">
<path d="M5.14773 15V3.36364H9.60227C10.4432 3.36364 11.142 3.49621 11.6989 3.76136C12.2595 4.02273 12.678 4.38068 12.9545 4.83523C13.2348 5.28977 13.375 5.80492 13.375 6.38068C13.375 6.85417 13.2841 7.25947 13.1023 7.59659C12.9205 7.92992 12.6761 8.20076 12.3693 8.40909C12.0625 8.61742 11.7197 8.76705 11.3409 8.85795V8.97159C11.7538 8.99432 12.1496 9.12121 12.5284 9.35227C12.911 9.57955 13.2235 9.90151 13.4659 10.3182C13.7083 10.7348 13.8295 11.2386 13.8295 11.8295C13.8295 12.4318 13.6837 12.9735 13.392 13.4545C13.1004 13.9318 12.661 14.3087 12.0739 14.5852C11.4867 14.8617 10.7481 15 9.85795 15H5.14773ZM7.25568 13.2386H9.52273C10.2879 13.2386 10.839 13.0928 11.1761 12.8011C11.517 12.5057 11.6875 12.1269 11.6875 11.6648C11.6875 11.3201 11.6023 11.0095 11.4318 10.733C11.2614 10.4527 11.0189 10.233 10.7045 10.0739C10.3902 9.91098 10.0152 9.82955 9.57955 9.82955H7.25568V13.2386ZM7.25568 8.3125H9.34091C9.70455 8.3125 10.0322 8.24621 10.3239 8.11364C10.6155 7.97727 10.8447 7.78598 11.0114 7.53977C11.1818 7.28977 11.267 6.99432 11.267 6.65341C11.267 6.20265 11.108 5.83144 10.7898 5.53977C10.4754 5.24811 10.0076 5.10227 9.38636 5.10227H7.25568V8.3125ZM15.6634 15V3.36364H20.027C20.9209 3.36364 21.6709 3.51894 22.277 3.82955C22.8868 4.14015 23.3471 4.57576 23.6577 5.13636C23.9721 5.69318 24.1293 6.3428 24.1293 7.08523C24.1293 7.83144 23.9702 8.47917 23.652 9.02841C23.3376 9.57386 22.8736 9.99621 22.2599 10.2955C21.6463 10.5909 20.8925 10.7386 19.9986 10.7386H16.8906V8.98864H19.7145C20.2372 8.98864 20.6652 8.91667 20.9986 8.77273C21.3319 8.625 21.5781 8.41098 21.7372 8.13068C21.9001 7.84659 21.9815 7.49811 21.9815 7.08523C21.9815 6.67235 21.9001 6.32008 21.7372 6.02841C21.5743 5.73295 21.3262 5.50947 20.9929 5.35795C20.6596 5.20265 20.2296 5.125 19.7031 5.125H17.7713V15H15.6634ZM21.6747 9.72727L24.5554 15H22.2031L19.3736 9.72727H21.6747ZM26.0696 15V3.36364H33.6378V5.13068H28.1776V8.28977H33.2457V10.0568H28.1776V13.233H33.6832V15H26.0696Z" fill="#20414B"/>
<path d="M4.64205 37H2.39205L6.48864 25.3636H9.09091L13.1932 37H10.9432L7.83523 27.75H7.74432L4.64205 37ZM4.71591 32.4375H10.8523V34.1307H4.71591V32.4375ZM14.7259 37V25.3636H16.8338V30.7102H16.9759L21.5156 25.3636H24.0895L19.5895 30.5852L24.1293 37H21.5952L18.1236 32.0114L16.8338 33.5341V37H14.7259Z" fill="#20414B"/>
<path d="M0.99905 23.9233C10.6204 23.7345 31.9121 21.2485 40.1082 12.8156M40.1082 12.8156C38.6079 12.8818 37.9523 13.0338 36.8963 12.9266M40.1082 12.8156C39.865 13.8106 39.9107 14.7621 40.0341 15.6487" stroke="#20414B"/>
<path d="M34.5 35.7C35.8791 35.7 37.2018 35.1521 38.177 34.177C39.1521 33.2018 39.7 31.8791 39.7 30.5C39.7 29.1209 39.1521 27.7982 38.177 26.823C37.2018 25.8479 35.8791 25.3 34.5 25.3C33.1209 25.3 31.7982 25.8479 30.823 26.823C29.8479 27.7982 29.3 29.1209 29.3 30.5C29.3 31.8791 29.8479 33.2018 30.823 34.177C31.7982 35.1521 33.1209 35.7 34.5 35.7ZM34.5 37C30.9101 37 28 34.0899 28 30.5C28 26.9101 30.9101 24 34.5 24C38.0899 24 41 26.9101 41 30.5C41 34.0899 38.0899 37 34.5 37ZM32.03 29.2L31.25 28.42L31.77 27.9L32.55 28.68L33.33 27.9L33.85 28.42L33.07 29.2L33.85 29.98L33.33 30.5L32.55 29.72L31.77 30.5L31.25 29.98L32.03 29.2ZM35.93 29.2L35.15 28.42L35.67 27.9L36.45 28.68L37.23 27.9L37.75 28.42L36.97 29.2L37.75 29.98L37.23 30.5L36.45 29.72L35.67 30.5L35.15 29.98L35.93 29.2ZM34.5 33.75C34.8448 33.75 35.1754 33.613 35.4192 33.3692C35.663 33.1254 35.8 32.7948 35.8 32.45C35.8 32.1052 35.663 31.7746 35.4192 31.5308C35.1754 31.287 34.8448 31.15 34.5 31.15C34.1552 31.15 33.8246 31.287 33.5808 31.5308C33.337 31.7746 33.2 32.1052 33.2 32.45C33.2 32.7948 33.337 33.1254 33.5808 33.3692C33.8246 33.613 34.1552 33.75 34.5 33.75Z" fill="#20414B"/>
</svg>
