<svg width="31" height="31" viewBox="0 0 31 31" fill="none" xmlns="http://www.w3.org/2000/svg">
<path d="M0 28.0476V5.90476H8.85714V0H20.6667V5.90476H29.5238V15.1679C28.6627 14.5528 27.7278 14.0853 26.719 13.7655C25.7103 13.4456 24.677 13.2857 23.619 13.2857C20.7651 13.2857 18.3294 14.2944 16.3119 16.3119C14.2944 18.3294 13.2857 20.7651 13.2857 23.619C13.2857 24.3817 13.3659 25.1385 13.5263 25.8894C13.6858 26.6393 13.9377 27.3587 14.2821 28.0476H0ZM11.8095 5.90476H17.7143V2.95238H11.8095V5.90476ZM23.619 31C21.577 31 19.8366 30.2806 18.3978 28.8418C16.958 27.402 16.2381 25.6611 16.2381 23.619C16.2381 21.577 16.958 19.8361 18.3978 18.3963C19.8366 16.9575 21.577 16.2381 23.619 16.2381C25.6611 16.2381 27.402 16.9575 28.8418 18.3963C30.2806 19.8361 31 21.577 31 23.619C31 25.6611 30.2806 27.402 28.8418 28.8418C27.402 30.2806 25.6611 31 23.619 31ZM26.0548 27.0881L27.0881 26.0548L24.3571 23.3238V19.1905H22.881V23.9143L26.0548 27.0881Z" fill="#365153"/>
</svg>
